<svg width="260" height="245" viewBox="0 0 260 245" fill="none" xmlns="http://www.w3.org/2000/svg">
<g clip-path="url(#clip0_3530_10354)">
<path opacity="0.7" d="M35.3228 86.8847C35.3228 86.8847 20.8267 124.318 41.1972 162.026C61.5677 199.735 103.534 219.643 137.121 236.671C170.708 253.699 205.585 245.407 222.159 217.515C238.733 189.624 215.999 169.713 215.972 129.938C215.946 90.1633 221.925 79.6322 200.392 46.0288C178.858 12.4248 126.001 4.98779 86.0436 29.9109C46.0868 54.8339 35.3228 86.8847 35.3228 86.8847Z" fill="white"/>
<path d="M21.3891 145.252C19.1089 134.551 19.737 123.235 24.3988 111.71C30.4054 96.8608 43.3092 86.31 57.7678 80.1532C78.7794 71.206 99.4057 71.036 116.485 53.5042C121.752 48.0967 126.174 41.903 131.554 36.6073C147.425 20.986 170.654 22.8824 187.999 35.2683C224.184 61.1071 237.198 112.281 235.186 154.59C234.283 173.576 225.219 191.247 210.871 203.704C178.423 231.878 123.326 227.138 86.0578 212.432C58.2664 201.466 27.9151 175.882 21.3891 145.252Z" fill="#A9D8F1"/>
<path opacity="0.7" d="M21.3891 145.252C19.1089 134.551 19.737 123.235 24.3988 111.71C30.4054 96.8608 43.3092 86.31 57.7678 80.1532C78.7794 71.206 99.4057 71.036 116.485 53.5042C121.752 48.0967 126.174 41.903 131.554 36.6073C147.425 20.986 170.654 22.8824 187.999 35.2683C224.184 61.1071 237.198 112.281 235.186 154.59C234.283 173.576 225.219 191.247 210.871 203.704C178.423 231.878 123.326 227.138 86.0578 212.432C58.2664 201.466 27.9151 175.882 21.3891 145.252Z" fill="white"/>
<path d="M186.461 54.834H184.641" stroke="#263238" stroke-linejoin="round"/>
<path d="M181.005 54.834H66.5039" stroke="#263238" stroke-linejoin="round" stroke-dasharray="6.99 6.99"/>
<path d="M64.6872 54.834H62.8672" stroke="#263238" stroke-linejoin="round"/>
<path d="M187.719 202.977V201.157" stroke="#263238" stroke-linejoin="round"/>
<path d="M187.719 197.485V59.7495" stroke="#263238" stroke-linejoin="round" stroke-dasharray="7.06 7.06"/>
<path d="M187.719 57.9128V56.0928" stroke="#263238" stroke-linejoin="round"/>
<path d="M188.98 53.5737H186.461V56.0931H188.98V53.5737Z" stroke="#263238" stroke-miterlimit="10" stroke-linejoin="round"/>
<path d="M208.781 62.3705L190.475 54.6802L198.165 72.9868L200.289 66.7931L204.377 70.8803L206.675 68.5824L202.587 64.4952L208.781 62.3705Z" stroke="#263238" stroke-miterlimit="10" stroke-linecap="round" stroke-linejoin="round"/>
<path d="M173.499 223.707H155.433C154.155 223.707 152.954 222.674 152.75 221.399L150.738 208.783C150.535 207.508 151.407 206.475 152.685 206.475H170.751C172.03 206.475 173.231 207.508 173.434 208.783L175.446 221.399C175.65 222.674 174.778 223.707 173.499 223.707Z" stroke="#263238" stroke-miterlimit="10" stroke-linecap="round" stroke-linejoin="round"/>
<path d="M173.498 223.708C174.777 223.708 175.813 222.671 175.813 221.393V207.169C175.813 205.947 174.864 204.957 173.663 204.871L173.101 203.424C172.995 203.153 172.734 202.974 172.443 202.974H166.536C166.246 202.974 165.985 203.152 165.879 203.424L165.323 204.854H155.432C154.412 204.854 153.548 205.512 153.238 206.426" stroke="#263238" stroke-miterlimit="10" stroke-linecap="round" stroke-linejoin="round"/>
<path d="M105.552 223.707H87.4862C86.2076 223.707 85.0063 222.674 84.803 221.399L82.7912 208.783C82.5878 207.508 83.4593 206.475 84.738 206.475H102.804C104.083 206.475 105.284 207.508 105.487 208.783L107.499 221.399C107.702 222.674 106.83 223.707 105.552 223.707Z" stroke="#263238" stroke-miterlimit="10" stroke-linecap="round" stroke-linejoin="round"/>
<path d="M105.552 223.708C106.831 223.708 107.867 222.671 107.867 221.393V207.169C107.867 205.947 106.917 204.957 105.718 204.871L105.155 203.424C105.049 203.153 104.788 202.974 104.498 202.974H98.5904C98.2997 202.974 98.0387 203.152 97.9331 203.424L97.3773 204.854H87.4863C86.4671 204.854 85.6024 205.512 85.293 206.426" stroke="#263238" stroke-miterlimit="10" stroke-linecap="round" stroke-linejoin="round"/>
<path d="M139.525 223.707H121.459C120.18 223.707 118.979 222.674 118.776 221.399L116.764 208.783C116.56 207.508 117.432 206.475 118.711 206.475H136.777C138.055 206.475 139.256 207.508 139.46 208.783L141.472 221.399C141.675 222.674 140.803 223.707 139.525 223.707Z" stroke="#263238" stroke-miterlimit="10" stroke-linecap="round" stroke-linejoin="round"/>
<path d="M139.525 223.708C140.804 223.708 141.84 222.671 141.84 221.393V207.169C141.84 205.947 140.89 204.957 139.69 204.871L139.128 203.424C139.022 203.153 138.761 202.974 138.47 202.974H132.563C132.272 202.974 132.011 203.152 131.906 203.424L131.35 204.854H121.459C120.44 204.854 119.575 205.512 119.266 206.426" stroke="#263238" stroke-miterlimit="10" stroke-linecap="round" stroke-linejoin="round"/>
<path d="M149.459 82.9628L154.356 76.9125C155.473 75.5319 155.905 73.7192 155.531 71.9824L150.886 50.4258C150.53 48.7722 149.068 47.5913 147.376 47.5913H138.373C137.733 47.5913 137.097 47.6963 136.491 47.9017L49.4062 83.5628L71.4756 198.168C74.5716 202.819 161.643 172.733 161.643 172.733C164.52 171.771 166.187 168.774 165.486 165.823L147.673 90.8205C147.019 88.065 147.678 85.1634 149.459 82.9628Z" fill="#A9D8F1" stroke="#263238" stroke-miterlimit="10" stroke-linecap="round" stroke-linejoin="round"/>
<path opacity="0.3" d="M136.721 50.1377L164.286 168.27C164.286 168.27 71.0878 202.987 75.4797 192.245C75.4797 192.245 53.3001 86.7109 55.1706 86.3209C57.0415 85.9303 136.721 50.1377 136.721 50.1377Z" fill="black" fill-opacity="0.7"/>
<path d="M159.733 166.166L79.3583 191.683L59.6821 89.1473L58.5625 83.3139L130.169 48.6674C131.604 47.9685 133.419 48.8598 133.828 50.4666L135.308 56.2562L162.188 161.603C162.698 163.601 161.643 165.56 159.733 166.166Z" fill="white"/>
<mask id="mask0_3530_10354" style="mask-type:luminance" maskUnits="userSpaceOnUse" x="58" y="48" width="105" height="144">
<path d="M159.733 166.166L79.3583 191.683L59.6821 89.1473L58.5625 83.3139L130.169 48.6674C131.604 47.9685 133.419 48.8598 133.828 50.4666L135.308 56.2562L162.188 161.603C162.698 163.601 161.643 165.56 159.733 166.166Z" fill="white"/>
</mask>
<g mask="url(#mask0_3530_10354)">
<path d="M135.308 56.2562L60.2567 90.61L58.5625 83.3139L130.169 48.6674C131.604 47.9685 133.419 48.8598 133.828 50.4666L135.308 56.2562Z" fill="#263238"/>
</g>
<mask id="mask1_3530_10354" style="mask-type:luminance" maskUnits="userSpaceOnUse" x="58" y="48" width="105" height="144">
<path d="M159.733 166.166L79.3583 191.683L59.6821 89.1473L58.5625 83.3139L130.169 48.6674C131.604 47.9685 133.419 48.8598 133.828 50.4666L135.308 56.2562L162.188 161.603C162.698 163.601 161.643 165.56 159.733 166.166Z" fill="white"/>
</mask>
<g mask="url(#mask1_3530_10354)">
<path d="M131.549 53.7148C131.549 54.7632 130.804 55.5614 129.886 55.4974C128.967 55.4334 128.223 54.5312 128.223 53.4829C128.223 52.4341 128.967 51.6364 129.886 51.7004C130.804 51.7643 131.549 52.6665 131.549 53.7148Z" fill="#A9D8F1" stroke="#263238" stroke-miterlimit="10" stroke-linecap="round" stroke-linejoin="round"/>
</g>
<mask id="mask2_3530_10354" style="mask-type:luminance" maskUnits="userSpaceOnUse" x="58" y="48" width="105" height="144">
<path d="M159.733 166.166L79.3583 191.683L59.6821 89.1473L58.5625 83.3139L130.169 48.6674C131.604 47.9685 133.419 48.8598 133.828 50.4666L135.308 56.2562L162.188 161.603C162.698 163.601 161.643 165.56 159.733 166.166Z" fill="white"/>
</mask>
<g mask="url(#mask2_3530_10354)">
<path d="M127.259 55.8372C127.259 56.8106 126.568 57.5511 125.715 57.4913C124.863 57.432 124.172 56.5943 124.172 55.6214C124.172 54.6479 124.863 53.9074 125.715 53.9672C126.568 54.0265 127.259 54.8637 127.259 55.8372Z" fill="#A9D8F1" stroke="#263238" stroke-miterlimit="10" stroke-linecap="round" stroke-linejoin="round"/>
</g>
<mask id="mask3_3530_10354" style="mask-type:luminance" maskUnits="userSpaceOnUse" x="58" y="48" width="105" height="144">
<path d="M159.733 166.166L79.3583 191.683L59.6821 89.1473L58.5625 83.3139L130.169 48.6674C131.604 47.9685 133.419 48.8598 133.828 50.4666L135.308 56.2562L162.188 161.603C162.698 163.601 161.643 165.56 159.733 166.166Z" fill="white"/>
</mask>
<g mask="url(#mask3_3530_10354)">
<path d="M123.209 57.6723C123.209 58.5829 122.563 59.2755 121.766 59.2199C120.969 59.1642 120.322 58.3811 120.322 57.4706C120.322 56.5601 120.969 55.8674 121.766 55.9231C122.563 55.9787 123.209 56.7618 123.209 57.6723Z" fill="#A9D8F1" stroke="#263238" stroke-miterlimit="10" stroke-linecap="round" stroke-linejoin="round"/>
</g>
<mask id="mask4_3530_10354" style="mask-type:luminance" maskUnits="userSpaceOnUse" x="58" y="48" width="105" height="144">
<path d="M159.733 166.166L79.3583 191.683L59.6821 89.1473L58.5625 83.3139L130.169 48.6674C131.604 47.9685 133.419 48.8598 133.828 50.4666L135.308 56.2562L162.188 161.603C162.698 163.601 161.643 165.56 159.733 166.166Z" fill="white"/>
</mask>
<g mask="url(#mask4_3530_10354)">
<path opacity="0.3" d="M159.733 166.166L79.3583 191.683L59.6821 89.1473L58.5625 83.3139L130.169 48.6674C131.604 47.9685 133.419 48.8598 133.828 50.4666L135.308 56.2562L162.188 161.603C162.698 163.601 161.643 165.56 159.733 166.166Z" fill="black" fill-opacity="0.7"/>
</g>
<path d="M159.733 166.166L79.3583 191.683L59.6821 89.1473L58.5625 83.3139L130.169 48.6674C131.604 47.9685 133.419 48.8598 133.828 50.4666L135.308 56.2562L162.188 161.603C162.698 163.601 161.643 165.56 159.733 166.166Z" stroke="#263238" stroke-miterlimit="10" stroke-linecap="round" stroke-linejoin="round"/>
<path d="M154.977 161.112L75.6869 192.245L56.2764 91.0846L55.1719 85.3293L125.811 45.6798C127.227 44.8811 129.017 45.6455 129.421 47.2231L130.881 52.9093L157.398 156.378C157.901 158.341 156.86 160.373 154.977 161.112Z" fill="white" stroke="#263238" stroke-miterlimit="10" stroke-linecap="round" stroke-linejoin="round"/>
<path d="M130.881 52.9093L56.8432 92.5068L55.1719 85.3293L125.811 45.6798C127.227 44.8811 129.017 45.6455 129.421 47.2231L130.881 52.9093Z" fill="#263238"/>
<path d="M127.171 50.6309C127.171 51.6798 126.437 52.5295 125.531 52.5295C124.625 52.5295 123.891 51.6793 123.891 50.6309C123.891 49.5826 124.625 48.7324 125.531 48.7324C126.437 48.7324 127.171 49.5826 127.171 50.6309Z" fill="#A9D8F1" stroke="#263238" stroke-miterlimit="10" stroke-linecap="round" stroke-linejoin="round"/>
<path d="M122.942 53.0523C122.942 54.0258 122.26 54.8146 121.419 54.8146C120.578 54.8146 119.896 54.0258 119.896 53.0523C119.896 52.0789 120.578 51.29 121.419 51.29C122.26 51.29 122.942 52.0789 122.942 53.0523Z" fill="#A9D8F1" stroke="#263238" stroke-miterlimit="10" stroke-linecap="round" stroke-linejoin="round"/>
<path d="M118.946 55.1704C118.946 56.0809 118.309 56.8188 117.522 56.8188C116.735 56.8188 116.098 56.0809 116.098 55.1704C116.098 54.2599 116.735 53.522 117.522 53.522C118.309 53.522 118.946 54.2604 118.946 55.1704Z" fill="#A9D8F1" stroke="#263238" stroke-miterlimit="10" stroke-linecap="round" stroke-linejoin="round"/>
<path opacity="0.3" d="M130.045 55.4668L153.394 146.887C153.489 147.262 153.301 147.651 152.947 147.807L150.817 148.751C150.375 148.947 149.863 148.697 149.745 148.227L127.02 57.3294C126.903 56.8609 127.114 56.3716 127.535 56.1345L129.292 55.1444C129.588 54.9785 129.961 55.1381 130.045 55.4668Z" fill="black" fill-opacity="0.7"/>
<path d="M128.039 58.1092L129.329 57.3968C129.858 57.1051 130.52 57.3931 130.666 57.9792L133.051 67.5555C133.171 68.0355 132.948 68.5352 132.511 68.7671L130.938 69.6022C130.556 69.805 130.085 69.5955 129.98 69.1758L127.514 59.313C127.396 58.8398 127.612 58.3453 128.039 58.1092Z" fill="#BFBFBF" stroke="#263238" stroke-miterlimit="10" stroke-linecap="round" stroke-linejoin="round"/>
<path opacity="0.4" d="M139.699 160.467L88.627 181.499" stroke="black" stroke-width="2" stroke-miterlimit="10" stroke-linecap="round" stroke-linejoin="round"/>
<path opacity="0.4" d="M146.603 154.056L81.7227 181.499" stroke="black" stroke-width="2" stroke-miterlimit="10" stroke-linecap="round" stroke-linejoin="round"/>
<path opacity="0.3" d="M140.23 126.457L134.996 104.194L120.807 110.973L125.994 133.16L140.23 126.457Z" fill="black" fill-opacity="0.7"/>
<path opacity="0.3" d="M115.023 86.2383L119.952 107.319L134.118 100.459L129.04 78.8574L115.023 86.2383Z" fill="black" fill-opacity="0.7"/>
<path opacity="0.3" d="M128.591 76.9477L124.441 59.2979L110.439 66.6319L114.589 84.3785L128.591 76.9477Z" fill="black" fill-opacity="0.7"/>
<path opacity="0.3" d="M126.508 135.359L131.281 155.776L145.643 149.486L140.818 128.958L126.508 135.359Z" fill="black" fill-opacity="0.7"/>
<path d="M49.4062 83.5627L71.4756 198.168C78.5392 190.1 128.996 153.145 128.996 153.145C132.921 150.298 134.773 145.386 133.704 140.656L110.333 40.4807C109.47 36.6644 104.83 35.172 101.904 37.7705C101.904 37.7705 54.9827 67.2498 49.4062 83.5627Z" fill="#A9D8F1" stroke="#263238" stroke-miterlimit="10" stroke-linecap="round" stroke-linejoin="round"/>
<g opacity="0.7">
<path d="M129.699 144.232C129.032 144.232 128.426 143.778 128.262 143.101C127.864 141.462 127.474 139.822 127.09 138.179C126.904 137.383 127.398 136.588 128.194 136.402C128.987 136.215 129.785 136.709 129.971 137.506C130.352 139.139 130.741 140.772 131.137 142.403C131.33 143.196 130.843 143.997 130.049 144.19C129.932 144.218 129.814 144.232 129.699 144.232Z" fill="white"/>
</g>
<g opacity="0.7">
<path d="M126.678 131.066C126.003 131.066 125.393 130.6 125.237 129.915L104.994 41.0487C104.989 41.0253 104.973 40.954 104.885 40.9187C104.797 40.8833 104.74 40.9228 104.721 40.9358C99.524 44.3954 81.9355 56.1895 73.786 62.7093C68.5959 67.0346 63.8374 72.0011 58.3784 78.7944C57.8673 79.4319 56.9354 79.5333 56.299 79.0211C55.662 78.5095 55.5606 77.5781 56.0722 76.9417C61.6586 69.9887 66.545 64.8927 71.9151 60.4176C79.9558 53.9847 96.3884 42.9285 103.081 38.4731C103.94 37.9011 105.024 37.7888 105.982 38.1705C106.941 38.5532 107.651 39.3836 107.88 40.3914L128.122 129.257C128.303 130.054 127.805 130.846 127.008 131.028C126.898 131.054 126.787 131.066 126.678 131.066Z" fill="white"/>
</g>
<path d="M67.6984 240.445C67.0031 234.162 66.0609 225.434 65.244 217.119C64.0563 204.98 63.1322 193.742 63.6351 192.321C64.7801 189.091 64.5487 186.765 64.5487 186.765C67.0208 186.491 68.1279 183.114 68.1279 183.114L66.8003 171.251C66.8003 171.251 67.6282 148.535 66.61 142.083C65.5866 135.626 61.4506 131.304 61.3648 129.585C61.2795 127.871 64.594 120.32 65.6834 118.159C66.7728 115.998 66.1462 103.839 64.387 100.038C63.8738 98.9332 63.1619 98.3056 62.4027 97.9728C60.551 97.1465 58.4387 98.0752 58.4387 98.0752C57.9572 105.206 55.8533 109.959 53.9038 113.346L53.9043 113.351C52.1982 116.312 50.6221 118.228 50.3371 119.792C49.7292 123.142 42.338 131.787 40.9418 136.258C39.5502 140.729 39.0932 155.935 36.9034 161.922C35.8712 164.744 32.1553 173.727 31.1777 201.127C30.6156 216.87 28.183 231.146 26.2148 240.446H67.6984V240.445Z" fill="white"/>
<path opacity="0.4" d="M65.6814 118.158C64.592 120.319 61.2781 127.87 61.3628 129.584C61.4486 131.304 65.5842 135.626 66.6081 142.082C67.6262 148.535 66.7984 171.25 66.7984 171.25L68.126 183.114C68.126 183.114 67.0194 186.491 64.5468 186.764C64.5468 186.764 64.7777 189.09 63.6332 192.32C63.1303 193.741 64.0544 204.98 65.242 217.118C64.0024 211.88 62.9832 207.83 62.9832 207.83C62.9832 207.83 62.4372 214.282 61.7419 219.369C61.0467 224.456 59.3614 231.7 59.3614 231.7C59.3614 231.7 55.6439 196.657 56.505 190.804C57.3609 184.947 59.5002 185.907 57.8518 183.105C56.2086 180.308 46.2028 177.877 47.1804 175.769C48.1392 173.701 55.9782 177.404 56.3012 177.556C56.0365 177.344 51.6924 173.865 51.7252 172.254C51.761 170.594 58.6989 174.846 58.6989 174.846C58.6989 174.846 61.5906 173.129 63.7112 170.697C65.8317 168.264 62.6847 144.984 62.0924 143.307C61.5001 141.63 57.7811 141.866 56.6938 140.466C55.6064 139.067 58.5595 138.442 57.9927 136.306C57.4259 134.17 55.9002 134.359 55.9002 134.359C55.9002 134.359 58.3427 130.79 58.1232 127.675C57.9074 124.555 61.9525 120.806 61.6608 118.559C60.5241 109.808 55.3152 115.837 53.9014 113.347L53.9008 113.342C55.8503 109.955 57.9542 105.202 58.4358 98.0713C58.4358 98.0713 60.548 97.1426 62.3997 97.9689C63.1589 98.3017 63.8708 98.9299 64.384 100.034C66.1448 103.838 66.7708 115.997 65.6814 118.158Z" fill="#A9D8F1"/>
<path d="M27.8965 231.702C29.3795 223.169 30.7684 212.532 31.1761 201.126C32.1548 173.727 35.8722 164.743 36.9044 161.922C39.0952 155.935 39.5502 140.73 40.9433 136.258C42.3364 131.786 49.7308 123.139 50.334 119.79C50.9372 116.442 57.5328 111.437 58.4366 98.0726C58.4366 98.0726 62.6236 96.2344 64.3844 100.037C66.1451 103.839 66.7727 115.997 65.6823 118.159C64.5918 120.321 61.2779 127.869 61.3637 129.586C61.4495 131.303 65.5876 135.626 66.6074 142.081C67.6271 148.535 66.7977 171.251 66.7977 171.251L68.1252 183.113C68.1252 183.113 67.0223 186.493 64.5487 186.765C64.5487 186.765 64.7811 189.089 63.635 192.319C62.853 194.523 65.4987 220.296 67.2584 236.45" stroke="#263238" stroke-miterlimit="10" stroke-linecap="round" stroke-linejoin="round"/>
<path d="M61.3633 129.586C61.3633 129.586 60.0581 133.221 57.5293 133.213" stroke="#263238" stroke-miterlimit="10" stroke-linecap="round" stroke-linejoin="round"/>
<path d="M60.522 131.214C60.522 131.214 61.2916 135.631 58.5605 138.444" stroke="#263238" stroke-miterlimit="10" stroke-linecap="round" stroke-linejoin="round"/>
<path d="M51.2695 117.62C51.2695 117.62 54.337 117.016 56.2589 118.173" stroke="#263238" stroke-miterlimit="10" stroke-linecap="round" stroke-linejoin="round"/>
<path d="M49.1367 176.531C49.1367 176.531 59.1056 179.661 60.6818 181.246C62.2579 182.831 64.55 186.765 64.55 186.765" stroke="#263238" stroke-miterlimit="10" stroke-linecap="round" stroke-linejoin="round"/>
<path d="M56.9219 174.996C58.3841 176.644 61.6617 178.525 63.2139 179.989C64.7661 181.452 65.5352 184.712 65.5352 184.712" stroke="#263238" stroke-miterlimit="10" stroke-linecap="round" stroke-linejoin="round"/>
<path d="M63.4668 174.229C63.4668 174.229 65.7688 173.085 66.9534 169.48" stroke="#263238" stroke-miterlimit="10" stroke-linecap="round" stroke-linejoin="round"/>
<path d="M60.7795 187.508C58.595 188.608 58.5368 201.13 59.6891 215.31" stroke="#263238" stroke-miterlimit="10" stroke-linecap="round" stroke-linejoin="round"/>
<path d="M61.9219 190.101C61.9427 191.486 63.8001 202.053 64.6571 210.933" stroke="#263238" stroke-miterlimit="10" stroke-linecap="round" stroke-linejoin="round"/>
<path d="M150.232 104.868C150.232 104.868 146.157 112.312 146.196 113.997C146.235 115.682 153.982 127.374 154.202 128.698C154.423 130.022 160.023 132.586 162.072 133.939C164.119 135.292 166.71 125.459 166.375 118.377C166.041 111.295 150.232 104.868 150.232 104.868Z" fill="white"/>
<mask id="mask5_3530_10354" style="mask-type:luminance" maskUnits="userSpaceOnUse" x="146" y="104" width="21" height="31">
<path d="M150.232 104.868C150.232 104.868 146.157 112.312 146.196 113.997C146.235 115.682 153.982 127.374 154.202 128.698C154.423 130.022 160.023 132.586 162.072 133.939C164.119 135.292 166.71 125.459 166.375 118.377C166.041 111.295 150.232 104.868 150.232 104.868Z" fill="white"/>
</mask>
<g mask="url(#mask5_3530_10354)">
<path opacity="0.5" d="M150.232 104.868C150.232 104.868 146.157 112.312 146.196 113.997C146.235 115.682 153.982 127.374 154.202 128.698C154.423 130.022 160.023 132.586 162.072 133.939C164.119 135.292 166.71 125.459 166.375 118.377C166.041 111.295 150.232 104.868 150.232 104.868Z" fill="#A9D8F1"/>
</g>
<path d="M150.232 104.868C150.232 104.868 146.157 112.312 146.196 113.997C146.235 115.682 153.982 127.374 154.202 128.698C154.423 130.022 160.023 132.586 162.072 133.939C164.119 135.292 166.71 125.459 166.375 118.377C166.041 111.295 150.232 104.868 150.232 104.868Z" stroke="#263238" stroke-miterlimit="10" stroke-linecap="round" stroke-linejoin="round"/>
<path d="M153.021 118.706C153.021 118.706 157.024 116.884 161.379 121.739" stroke="#263238" stroke-miterlimit="10" stroke-linecap="round" stroke-linejoin="round"/>
<path d="M235.634 187.951L211.181 215.553C211.181 215.553 207.16 210.547 202.131 204.429C194.983 195.736 185.798 184.802 183.2 182.809C180.028 180.374 159.407 166.273 153.71 159.292C152.892 158.289 152.183 157.404 151.554 156.595V156.59C147.791 151.747 147.045 149.669 145.174 142.905C142.997 135.003 140.597 130.638 139.987 127.715C139.969 127.629 139.951 127.539 139.933 127.444C139.305 124.2 138.203 114.44 136.771 111.96C135.293 109.402 141.158 108.164 143.395 109.588C145.631 111.006 151.206 117.924 150.854 123.879C150.854 123.879 155.236 134.682 157.473 134.388C157.473 134.388 157.184 123.567 155.697 120.924C154.812 119.351 154.586 117.896 154.554 116.975C154.523 116.351 154.586 115.972 154.586 115.972C154.586 115.972 147.691 108.535 145.667 103.529C143.638 98.5225 139.667 90.8146 138.903 83.3141C138.903 83.3141 138.013 77.9238 141.28 75.4798C142.527 74.5443 143.674 74.2822 144.835 75.8953C145.31 76.564 145.793 77.5489 146.286 78.9362C151.179 92.7485 157.224 98.0389 157.224 98.0389C157.224 98.0389 161.227 99.0644 164.137 100.434C164.553 100.628 165.028 100.917 165.552 101.269C165.556 101.269 165.556 101.269 165.561 101.269C165.561 101.274 165.561 101.274 165.561 101.274C166.844 102.137 168.407 103.388 170.015 104.613C172.338 106.375 174.755 108.083 176.572 108.481C182.897 109.854 185.938 113.066 185.938 113.066C185.938 113.066 190.14 112.172 192.362 116.084C194.518 119.871 195.706 120.625 195.706 120.625C195.738 120.625 197.292 120.639 198.566 123.422C200.811 128.328 207.562 154.476 207.892 155.533C210.607 164.18 218.681 173.461 227.912 181.594C227.912 181.594 227.912 181.598 227.916 181.598C230.433 183.812 233.032 185.941 235.634 187.951Z" fill="white"/>
<path opacity="0.4" d="M165.559 101.274C165.559 101.274 165.554 101.274 165.551 101.27C165.555 101.27 165.555 101.27 165.559 101.27C165.559 101.274 165.559 101.274 165.559 101.274Z" fill="#A9D8F1"/>
<path opacity="0.4" d="M172.36 111.874C172.36 111.874 165.05 110.555 163.609 107.238C162.172 103.921 156.05 96.8416 154.586 96.3809C153.126 95.9155 152.204 96.9456 152.204 96.9456C152.204 96.9456 149.67 92.938 147.763 89.4815C145.951 86.1967 136.997 76.3427 144.836 75.8955C145.31 76.5642 145.793 77.5491 146.286 78.9365C151.179 92.7487 157.225 98.0392 157.225 98.0392C157.225 98.0392 161.228 99.0646 164.137 100.434C164.553 100.628 165.028 100.917 165.552 101.269C165.362 101.224 162.439 100.497 163.017 101.992C163.609 103.542 168.376 107.857 170.879 109.75C173.381 111.648 172.36 111.874 172.36 111.874Z" fill="#A9D8F1"/>
<path opacity="0.4" d="M227.912 181.594C223.778 179.331 217.534 175.594 215.446 172.657C212.23 168.13 209.844 165.866 207.702 163.241C205.556 160.62 201.503 158.479 202.456 158.835C203.41 159.192 207.702 160.67 207.702 160.67C207.702 160.67 204.485 156.689 201.982 150.016C199.479 143.343 194.925 119.875 191.541 117.268C188.156 114.661 191.541 140.297 191.541 140.297C191.541 140.297 188.279 133.095 186.728 124.678C185.179 116.256 183.764 112.122 181.935 110.983C180.105 109.849 176.598 112.244 175.645 110.983C174.692 109.728 175.767 109.262 170.016 104.613C172.338 106.375 174.755 108.083 176.572 108.481C182.897 109.854 185.938 113.066 185.938 113.066C185.938 113.066 190.14 112.172 192.363 116.085C194.518 119.871 195.706 120.625 195.706 120.625C195.738 120.625 197.292 120.639 198.566 123.422C200.812 128.328 207.562 154.476 207.892 155.533C210.608 164.181 218.682 173.461 227.912 181.594Z" fill="#A9D8F1"/>
<path opacity="0.4" d="M159.886 139.358C159.62 140.94 157.65 136.313 157.474 137.027C157.297 137.746 156.764 140.09 156.733 139.358C156.705 138.626 152.53 136.313 151.812 132.857C151.098 129.4 150.624 127.923 150.267 127.056C149.91 126.184 149.273 127.634 149.232 125.538C149.196 123.663 143.155 121.683 139.933 127.445C139.305 124.2 138.203 114.441 136.771 111.961C135.293 109.403 141.158 108.165 143.395 109.588C145.631 111.007 151.206 117.924 150.854 123.879C150.854 123.879 155.236 134.682 157.473 134.389C157.473 134.389 157.184 123.567 155.697 120.924C154.812 119.352 154.586 117.897 154.554 116.975L156.732 117.269C157.319 118.561 156.172 120.396 156.732 121.327C157.297 122.253 160.817 129.035 159.651 132.541C158.485 136.042 160.153 137.777 159.886 139.358Z" fill="#A9D8F1"/>
<path opacity="0.4" d="M202.131 204.429C194.984 195.737 185.798 184.803 183.2 182.81C180.028 180.375 159.407 166.273 153.71 159.293C152.892 158.29 152.183 157.404 151.555 156.596C154.588 160.3 158.293 162.249 159.916 163.125C162.776 164.671 171.059 166.006 176.839 172.279C179.647 175.327 181.248 177.542 184.705 181.356C188.156 185.169 193.163 185.409 196.14 190.655C197.636 193.283 200.116 199.206 202.131 204.429Z" fill="#A9D8F1"/>
<path d="M211.181 215.554C211.181 215.554 187.625 186.208 183.201 182.811C180.029 180.375 159.408 166.275 153.71 159.293C148.011 152.311 147.357 150.805 145.177 142.904C142.996 135.002 140.601 130.638 139.987 127.714C139.374 124.789 138.245 114.514 136.77 111.959C135.295 109.404 141.16 108.166 143.395 109.586C145.63 111.005 151.206 117.926 150.855 123.879C150.855 123.879 155.238 134.682 157.474 134.387C157.474 134.387 157.183 123.566 155.696 120.923C154.21 118.28 154.588 115.973 154.588 115.973C154.588 115.973 147.692 108.534 145.666 103.527C143.64 98.52 139.665 90.8136 138.903 83.3147C138.903 83.3147 138.013 77.9254 141.28 75.4778C143.04 74.1596 144.601 74.1783 146.287 78.9353C151.181 92.7475 157.225 98.0395 157.225 98.0395C157.225 98.0395 161.228 99.0634 164.138 100.432C167.049 101.8 172.983 107.698 176.574 108.48C182.898 109.855 185.938 113.069 185.938 113.069C185.938 113.069 190.142 112.173 192.364 116.084C194.517 119.872 195.705 120.627 195.705 120.627C195.705 120.627 197.278 120.614 198.565 123.421C200.815 128.329 207.562 154.474 207.895 155.534C211.351 166.539 223.488 178.573 235.636 187.954" stroke="#263238" stroke-miterlimit="10" stroke-linecap="round" stroke-linejoin="round"/>
<path d="M157.227 98.0396C157.227 98.0396 163.211 106.327 167.402 107.915" stroke="#263238" stroke-miterlimit="10" stroke-linecap="round" stroke-linejoin="round"/>
<path d="M167.074 109.752C171.112 111.045 173.716 111.814 174.459 114.856C175.201 117.898 177.361 124.778 178.4 127.485C179.44 130.191 181.935 137.028 181.935 137.028" stroke="#263238" stroke-miterlimit="10" stroke-linecap="round" stroke-linejoin="round"/>
<path d="M157.475 134.387C157.475 134.387 160.221 137.961 159.546 141.462" stroke="#263238" stroke-miterlimit="10" stroke-linecap="round" stroke-linejoin="round"/>
<path d="M156.309 133.811C156.309 133.811 156.189 137.697 157.166 140.297" stroke="#263238" stroke-miterlimit="10" stroke-linecap="round" stroke-linejoin="round"/>
<path d="M154.588 115.974C154.588 115.974 156.792 117.162 157.318 118.562" stroke="#263238" stroke-miterlimit="10" stroke-linecap="round" stroke-linejoin="round"/>
<path d="M156.191 122.23C156.191 122.23 157.175 124.366 158.24 125.537C159.304 126.707 159.806 130.508 159.806 130.508" stroke="#263238" stroke-miterlimit="10" stroke-linecap="round" stroke-linejoin="round"/>
<path d="M139.986 127.713C139.986 127.713 142.363 125.038 144.818 124.676" stroke="#263238" stroke-miterlimit="10" stroke-linecap="round" stroke-linejoin="round"/>
<path d="M151.238 97.5176C151.238 97.5176 154.001 95.4469 156.098 96.8759" stroke="#263238" stroke-miterlimit="10" stroke-linecap="round" stroke-linejoin="round"/>
<path d="M197.254 127.362C197.807 128.876 200.634 142.54 201.346 144.484" stroke="#263238" stroke-miterlimit="10" stroke-linecap="round" stroke-linejoin="round"/>
<path d="M177.91 111.702C177.91 111.702 180.508 109.839 183.766 112.122C187.025 114.404 187.029 115.508 189.033 114.971C191.038 114.435 192.365 116.084 192.365 116.084" stroke="#263238" stroke-miterlimit="10" stroke-linecap="round" stroke-linejoin="round"/>
<path d="M188.393 121.324C188.911 124.391 191.117 139.382 192.183 143.145" stroke="#263238" stroke-miterlimit="10" stroke-linecap="round" stroke-linejoin="round"/>
</g>
<defs>
<clipPath id="clip0_3530_10354">
<rect width="260" height="245" fill="white"/>
</clipPath>
</defs>
</svg>
