<svg width="18" height="26" viewBox="0 0 18 26" fill="none" xmlns="http://www.w3.org/2000/svg">
<rect x="7.29153" y="25.7488" width="4.15158" height="4.34928" rx="2.07579" transform="rotate(-90 7.29153 25.7488)" fill="#00A488"/>
<path d="M5.1405 11.4424C4.20039 11.9852 2.96415 11.6605 2.7248 10.6017C2.58733 9.9935 2.537 9.36548 2.57822 8.73655C2.66261 7.449 3.12691 6.21539 3.9124 5.19172C4.69789 4.16805 5.76929 3.40029 6.99112 2.98554C8.21295 2.57078 9.53034 2.52766 10.7767 2.86161C12.023 3.19557 13.1423 3.89161 13.9931 4.86171C14.8439 5.83182 15.3878 7.03242 15.5563 8.31169C15.7247 9.59096 15.51 10.8914 14.9393 12.0487C14.6605 12.614 14.3029 13.1327 13.8798 13.5906C13.1431 14.3879 11.9101 14.051 11.3674 13.1109L11.1482 12.7314C10.7265 12.0009 11.0405 11.0665 11.4136 10.31V10.31C11.6404 9.85008 11.7258 9.33322 11.6588 8.8248C11.5919 8.31637 11.3757 7.83921 11.0376 7.45366C10.6994 7.0681 10.2546 6.79147 9.75924 6.65874C9.2639 6.52602 8.74033 6.54316 8.25473 6.708C7.76913 6.87284 7.34331 7.17797 7.03113 7.58481C6.71895 7.99165 6.53442 8.48193 6.50088 8.99365V8.99365C6.44572 9.83534 6.25053 10.8015 5.52004 11.2233L5.1405 11.4424Z" fill="#22A3E6"/>
<path d="M10.0257 19.9879C9.11241 20.5583 7.8793 20.2806 7.57726 19.247C7.42545 18.7276 7.3328 18.1904 7.30251 17.6458C7.23595 16.4487 7.47288 15.2542 7.99131 14.1732C8.50975 13.0922 9.29288 12.1596 10.268 11.4621C10.9529 10.9722 11.7168 10.6095 12.5234 10.3879C13.1572 10.2138 13.8054 10.5178 14.1845 11.0548V11.0548C14.4956 11.4955 14.5916 12.0529 14.4457 12.5723L14.4071 12.7095C14.1783 13.5241 13.4395 14.0678 12.7194 14.5119C12.6572 14.5503 12.5962 14.5909 12.5365 14.6335C12.0956 14.9489 11.7416 15.3705 11.5072 15.8593C11.2728 16.348 11.1656 16.8881 11.1957 17.4293V17.4293C11.2453 18.3213 11.065 19.3388 10.3073 19.812L10.0257 19.9879Z" fill="#FFCC00"/>
</svg>
